<svg width="68" height="78" viewBox="0 0 68 78" fill="none" xmlns="http://www.w3.org/2000/svg">
    <path d="M34.0804 23.075C40.3499 23.075 45.4941 17.875 45.4941 11.5375C45.4941 5.2 40.3499 0 34.0804 0C27.8109 0 22.6667 5.2 22.6667 11.5375C22.6667 17.875 27.8109 23.075 34.0804 23.075Z" fill="black"/>
    <path d="M68 70.2L64.1418 52C63.9811 51.35 63.4988 51.025 62.8558 51.025L60.2837 51.5125L60.1229 51.025C59.8014 48.75 58.3546 47.125 56.747 46.3125C57.3901 45.6625 57.8723 44.6875 58.0331 43.7125C58.0331 42.575 57.7116 41.4375 57.0686 40.4625L49.6738 30.7125C45.6548 25.35 41.1537 24.8625 36.8132 24.8625H31.1868C26.8463 24.8625 22.3452 25.35 18.3262 30.7125L10.9314 40.4625C10.1277 41.4375 9.80615 42.575 9.9669 43.7125C9.9669 44.6875 10.4492 45.6625 11.253 46.3125C9.48463 46.9625 8.19858 48.75 7.87707 51.025L7.71631 51.5125L5.14421 51.025C4.50118 50.8625 4.01891 51.35 3.85816 52L0 70.2C0 70.525 0 70.85 0.160756 71.0125C0.321513 71.3375 0.643026 71.5 0.964539 71.5L17.5225 74.2625H17.6832C18.0047 74.2625 18.1655 74.1 18.3262 74.1C18.6478 73.9375 18.8085 73.6125 18.8085 73.2875L20.8983 54.925C20.8983 54.275 20.5768 53.7875 19.9338 53.625L17.3617 53.1375L17.5225 52.6501C17.844 50.5375 17.2009 48.5875 15.9149 47.2875C16.7187 46.9625 17.3617 46.475 18.0047 45.825L24.9173 36.725V73.6125C24.9173 76.05 26.8463 78 29.2577 78C31.669 78 33.5981 76.05 33.5981 73.6125V53.7875C33.5981 53.4625 33.7589 53.3 34.0804 53.3C34.4019 53.3 34.5626 53.4625 34.5626 53.7875V73.6125C34.5626 76.05 36.4917 78 38.9031 78C41.3144 78 43.2435 76.05 43.2435 73.6125V50.2125V36.725L50.156 45.825C50.6383 46.475 51.4421 47.125 52.2459 47.2875C50.9598 48.5875 50.3168 50.5375 50.6383 52.6501L50.7991 53.1375L48.0662 53.625C47.4232 53.7875 47.1017 54.275 47.1017 54.925L49.1915 73.45C49.1915 73.775 49.3522 74.1 49.6738 74.2625C49.8345 74.425 50.156 74.425 50.3168 74.425H50.4775L67.0355 71.6625C67.357 71.6625 67.6785 71.5 67.8392 71.175C68 70.85 68.1608 70.525 68 70.2ZM15.5934 52.325L15.4326 52.8125L9.64539 51.8375V51.35C9.9669 49.2375 11.5745 47.775 13.182 48.1C14.7896 48.2625 15.9149 50.2125 15.5934 52.325ZM52.5674 52.8125L52.4066 52.325C52.0851 50.2125 53.0496 48.2625 54.818 48.1C56.4255 47.775 58.0331 49.4 58.3546 51.35L58.5154 51.8375L52.5674 52.8125Z" fill="black"/>
</svg>