<?xml version="1.0" encoding="utf-8"?>
<!-- Generator: Adobe Illustrator 19.0.0, SVG Export Plug-In . SVG Version: 6.00 Build 0)  -->
<svg version="1.1" id="Warstwa_1" xmlns="http://www.w3.org/2000/svg" xmlns:xlink="http://www.w3.org/1999/xlink" x="0px" y="0px"
	 viewBox="0 0 150 100" style="enable-background:new 0 0 150 100;" xml:space="preserve">
<style type="text/css">
	.st0{fill:#D1D3D4;}
</style>
<rect id="XMLID_1_" class="st0" width="150" height="100"/>
<g id="XMLID_2_">
	<path id="XMLID_4_" d="M55.8,36.9c0.6-0.1,1.4-0.2,2.2-0.2c1.5,0,2.6,0.3,3.3,1c0.7,0.7,1.1,1.6,1.1,2.9c0,1.3-0.4,2.4-1.2,3.1
		c-0.8,0.8-2,1.2-3.6,1.2c-0.7,0-1.4,0-1.9-0.1V36.9z M56.9,44c0.3,0,0.6,0.1,1.1,0.1c2.2,0,3.4-1.2,3.4-3.4c0-1.9-1.1-3.1-3.3-3.1
		c-0.5,0-0.9,0-1.2,0.1V44z"/>
	<path id="XMLID_7_" d="M68,41h-3.1V44h3.5v0.9h-4.5v-8.1h4.4v0.9h-3.3v2.6H68V41z"/>
	<path id="XMLID_9_" d="M69.7,36.7h4.4v0.9h-3.3v2.7h3.1v0.9h-3.1v3.7h-1V36.7z"/>
	<path id="XMLID_11_" d="M75.9,42.3l-0.8,2.5H74l2.7-8.1H78l2.8,8.1h-1.1l-0.9-2.5H75.9z M78.6,41.5l-0.8-2.3
		c-0.2-0.5-0.3-1-0.4-1.5h0c-0.1,0.5-0.3,1-0.4,1.5l-0.8,2.3H78.6z"/>
	<path id="XMLID_14_" d="M82.7,36.7v4.8c0,1.8,0.8,2.6,1.9,2.6c1.2,0,2-0.8,2-2.6v-4.8h1.1v4.7c0,2.5-1.3,3.5-3.1,3.5
		c-1.7,0-2.9-0.9-2.9-3.5v-4.8H82.7z"/>
	<path id="XMLID_16_" d="M89.4,36.7h1V44h3.5v0.9h-4.5V36.7z"/>
	<path id="XMLID_18_" d="M95.6,37.6h-2.5v-0.9h6v0.9h-2.5v7.2h-1.1V37.6z"/>
	<path id="XMLID_20_" d="M62.3,51.1v8.1h-1v-8.1H62.3z"/>
	<path id="XMLID_22_" d="M71,55.7c-0.1-1.1-0.1-2.5-0.1-3.5h0c-0.3,0.9-0.6,2-1,3.1l-1.4,3.9h-0.8l-1.3-3.8
		c-0.4-1.1-0.7-2.2-0.9-3.1h0c0,1-0.1,2.4-0.2,3.6L65,59.2h-1l0.6-8.1h1.3l1.4,3.9c0.3,1,0.6,1.9,0.8,2.7h0c0.2-0.8,0.5-1.7,0.9-2.7
		l1.4-3.9h1.3l0.5,8.1h-1L71,55.7z"/>
	<path id="XMLID_24_" d="M75,56.7l-0.8,2.5h-1.1l2.7-8.1h1.3l2.8,8.1h-1.1l-0.9-2.5H75z M77.7,55.9l-0.8-2.3c-0.2-0.5-0.3-1-0.4-1.5
		h0c-0.1,0.5-0.3,1-0.4,1.5l-0.8,2.3H77.7z"/>
	<path id="XMLID_27_" d="M87,58.9c-0.5,0.2-1.4,0.4-2.5,0.4c-1.2,0-2.2-0.3-3-1.1c-0.7-0.7-1.1-1.8-1.1-3c0-2.4,1.7-4.2,4.4-4.2
		c0.9,0,1.7,0.2,2,0.4l-0.3,0.9c-0.4-0.2-1-0.3-1.8-0.3c-2,0-3.3,1.2-3.3,3.3c0,2.1,1.2,3.3,3.1,3.3c0.7,0,1.2-0.1,1.4-0.2v-2.4
		h-1.6V55H87V58.9z"/>
	<path id="XMLID_29_" d="M92.8,55.4h-3.1v2.9h3.5v0.9h-4.5v-8.1H93V52h-3.3v2.6h3.1V55.4z"/>
</g>
<g id="XMLID_3_">
</g>
<g id="XMLID_31_">
</g>
<g id="XMLID_32_">
</g>
<g id="XMLID_33_">
</g>
<g id="XMLID_34_">
</g>
<g id="XMLID_35_">
</g>
</svg>
