<?xml version="1.0" encoding="utf-8"?>
<!-- Generator: Adobe Illustrator 19.0.0, SVG Export Plug-In . SVG Version: 6.00 Build 0)  -->
<svg version="1.1" id="Warstwa_1" xmlns="http://www.w3.org/2000/svg" xmlns:xlink="http://www.w3.org/1999/xlink" x="0px" y="0px"
	 viewBox="0 0 120 100" style="enable-background:new 0 0 120 100;" xml:space="preserve">
<style type="text/css">
	.st0{fill:#A7A9AC;}
	.st1{fill:none;}
</style>
<rect id="XMLID_1_" class="st0" width="120" height="100"/>
<g id="XMLID_3_">
	<rect id="XMLID_32_" class="st1" width="120" height="100"/>
	<path id="XMLID_5_" d="M38.2,39.1h-3.7v3.4h4.1v1h-5.3v-9.4h5.1v1h-3.9v3h3.7V39.1z"/>
	<path id="XMLID_7_" d="M45.4,43.5l-1.2-2.1c-0.5-0.8-0.8-1.3-1.1-1.9h0c-0.3,0.5-0.5,1.1-1,1.9l-1.1,2.1h-1.4l2.9-4.8l-2.8-4.7H41
		l1.2,2.2c0.4,0.6,0.6,1.1,0.9,1.6h0c0.3-0.6,0.5-1,0.9-1.6l1.3-2.2h1.4l-2.9,4.6l2.9,4.8H45.4z"/>
	<path id="XMLID_9_" d="M49.6,40.6l-1,3h-1.3l3.2-9.4h1.5l3.2,9.4H54l-1-3H49.6z M52.7,39.6l-0.9-2.7c-0.2-0.6-0.4-1.2-0.5-1.7h0
		c-0.1,0.6-0.3,1.1-0.5,1.7l-0.9,2.7H52.7z"/>
	<path id="XMLID_12_" d="M64.6,39.4c-0.1-1.3-0.2-2.9-0.1-4.1h0c-0.3,1.1-0.7,2.3-1.2,3.6l-1.7,4.6h-0.9L59.1,39
		c-0.4-1.3-0.8-2.5-1.1-3.7h0c0,1.2-0.1,2.8-0.2,4.2l-0.3,4h-1.2l0.7-9.4h1.6l1.6,4.6c0.4,1.2,0.7,2.2,1,3.2h0c0.2-1,0.6-2,1-3.2
		l1.7-4.6h1.6l0.6,9.4h-1.2L64.6,39.4z"/>
	<path id="XMLID_14_" d="M67.9,34.2c0.6-0.1,1.4-0.2,2.3-0.2c1.2,0,2.1,0.3,2.6,0.8c0.5,0.4,0.8,1.1,0.8,2c0,0.9-0.3,1.5-0.7,2
		c-0.6,0.7-1.7,1-2.9,1c-0.4,0-0.7,0-1-0.1v3.8h-1.2V34.2z M69.1,38.8c0.3,0.1,0.6,0.1,1,0.1c1.5,0,2.4-0.7,2.4-2
		c0-1.2-0.9-1.8-2.2-1.8c-0.5,0-0.9,0-1.1,0.1V38.8z"/>
	<path id="XMLID_17_" d="M75.3,34.1h1.2v8.4h4v1h-5.3V34.1z"/>
	<path id="XMLID_19_" d="M86.8,39.1h-3.7v3.4h4.1v1h-5.3v-9.4H87v1h-3.9v3h3.7V39.1z"/>
	<path id="XMLID_21_" d="M42.9,50.9v9.4h-1.2v-9.4H42.9z"/>
	<path id="XMLID_23_" d="M53,56.2c-0.1-1.3-0.2-2.9-0.1-4.1h0c-0.3,1.1-0.7,2.3-1.2,3.6L50,60.3H49l-1.5-4.5
		c-0.4-1.3-0.8-2.5-1.1-3.7h0c0,1.2-0.1,2.8-0.2,4.2l-0.3,4h-1.2l0.7-9.4H47l1.6,4.6c0.4,1.2,0.7,2.2,1,3.2h0c0.2-1,0.6-2,1-3.2
		l1.7-4.6h1.6l0.6,9.4h-1.2L53,56.2z"/>
	<path id="XMLID_25_" d="M57.7,57.4l-1,3h-1.3l3.2-9.4h1.5l3.2,9.4H62l-1-3H57.7z M60.8,56.4l-0.9-2.7c-0.2-0.6-0.4-1.2-0.5-1.7h0
		c-0.1,0.6-0.3,1.1-0.5,1.7l-0.9,2.7H60.8z"/>
	<path id="XMLID_28_" d="M71.7,59.9c-0.5,0.2-1.6,0.5-2.9,0.5c-1.4,0-2.6-0.4-3.5-1.2c-0.8-0.8-1.3-2-1.3-3.5c0-2.8,1.9-4.9,5.1-4.9
		c1.1,0,1.9,0.2,2.4,0.4l-0.3,1C70.6,52,70,51.8,69,51.8c-2.3,0-3.8,1.4-3.8,3.8c0,2.4,1.4,3.8,3.6,3.8c0.8,0,1.3-0.1,1.6-0.3v-2.8
		h-1.9v-1h3.1V59.9z"/>
	<path id="XMLID_30_" d="M78.4,55.9h-3.7v3.4h4.1v1h-5.3v-9.4h5.1v1h-3.9v3h3.7V55.9z"/>
</g>
<g id="XMLID_2_">
</g>
<g id="XMLID_4_">
</g>
<g id="XMLID_33_">
</g>
<g id="XMLID_34_">
</g>
<g id="XMLID_35_">
</g>
<g id="XMLID_36_">
</g>
</svg>
