<svg width="12" height="9" viewBox="0 0 12 9" fill="none" xmlns="http://www.w3.org/2000/svg">
    <g clip-path="url(#clip0)">
        <path d="M6.04196 8.50809L11.7902 1.86573C12.042 1.57871 12.042 1.16869 11.8112 0.881671C11.5385 0.51265 10.993 0.451147 10.6364 0.758664L5.11888 5.30992C5.01399 5.41242 4.84616 5.41242 4.76224 5.30992L2.07692 3.66983C1.67832 3.42381 1.17483 3.48532 0.839162 3.79283C0.46154 4.16185 0.440561 4.73588 0.797204 5.12541L3.88112 8.52859C4.46853 9.16413 5.47553 9.16413 6.04196 8.50809Z" fill="black"/>
        <path d="M5.60139 8.09793L11.3706 1.43506C11.6224 1.14805 11.6224 0.738023 11.3916 0.451007C11.1189 0.0819863 10.5734 0.0204829 10.2168 0.328L4.6993 4.89975C4.5944 5.00226 4.42657 5.00226 4.34265 4.89975L1.65734 3.25966C1.25874 3.01365 0.75524 3.07515 0.419576 3.38267C0.0419535 3.75169 0.0209745 4.32572 0.377618 4.71524L3.46153 8.11843C4.02797 8.75397 5.05594 8.73347 5.60139 8.09793Z" fill="#FFDC00"/>
        <path d="M0.48252 3.91569C0.818184 3.58767 1.32168 3.54667 1.72028 3.77218L4.4056 5.43278C4.51049 5.53528 4.67832 5.53528 4.76224 5.43278L10.2797 0.840522C10.6364 0.533005 11.1818 0.594508 11.4545 0.963529C11.4965 1.02503 11.5175 1.06603 11.5385 1.10704C11.6014 0.881524 11.5594 0.63551 11.4126 0.430499C11.1399 0.0614785 10.5944 -2.49147e-05 10.2378 0.307492L4.6993 4.89975C4.59441 5.00225 4.42658 5.00225 4.34266 4.89975L1.65734 3.25966C1.25874 3.01364 0.755247 3.07515 0.419583 3.38266C0.125876 3.66968 0.0629392 4.0797 0.188813 4.40772C0.230771 4.22321 0.314687 4.0592 0.48252 3.91569Z" fill="white"/>
    </g>
    <defs>
        <clipPath id="clip0">
            <rect width="12" height="9" fill="white"/>
        </clipPath>
    </defs>
</svg>