<?xml version="1.0" encoding="utf-8"?>
<!-- Generator: Adobe Illustrator 19.0.0, SVG Export Plug-In . SVG Version: 6.00 Build 0)  -->
<svg version="1.1" id="Warstwa_1" xmlns="http://www.w3.org/2000/svg" xmlns:xlink="http://www.w3.org/1999/xlink" x="0px" y="0px"
	 viewBox="0 0 70 70" style="enable-background:new 0 0 70 70;" xml:space="preserve">
<style type="text/css">
	.st0{fill:#D1D3D4;}
</style>
<circle id="XMLID_1_" class="st0" cx="34.9" cy="34.9" r="34.9"/>
<g id="XMLID_2_">
	<path id="XMLID_6_" d="M13.6,36.8l-1,3h-1.3l3.2-9.4H16l3.2,9.4h-1.3l-1-3H13.6z M16.7,35.8l-0.9-2.7c-0.2-0.6-0.3-1.2-0.5-1.7h0
		c-0.1,0.6-0.3,1.1-0.5,1.7l-0.9,2.7H16.7z"/>
	<path id="XMLID_9_" d="M22.6,39.7l-3.1-9.4h1.3l1.5,4.7c0.4,1.3,0.8,2.4,1,3.5h0c0.3-1.1,0.7-2.3,1.1-3.5l1.6-4.7h1.3L24,39.7H22.6
		z"/>
	<path id="XMLID_11_" d="M29.8,36.8l-1,3h-1.3l3.2-9.4h1.5l3.2,9.4h-1.3l-1-3H29.8z M32.9,35.8L32,33.1c-0.2-0.6-0.4-1.2-0.5-1.7h0
		c-0.1,0.6-0.3,1.1-0.5,1.7l-0.9,2.7H32.9z"/>
	<path id="XMLID_14_" d="M38.3,31.3h-2.9v-1h7v1h-2.9v8.4h-1.2V31.3z"/>
	<path id="XMLID_16_" d="M44.6,36.8l-1,3h-1.3l3.2-9.4H47l3.2,9.4H49l-1-3H44.6z M47.7,35.8l-0.9-2.7c-0.2-0.6-0.4-1.2-0.5-1.7h0
		c-0.1,0.6-0.3,1.1-0.5,1.7l-0.9,2.7H47.7z"/>
	<path id="XMLID_19_" d="M52.3,30.4c0.6-0.1,1.5-0.2,2.3-0.2c1.3,0,2.1,0.2,2.7,0.8c0.5,0.4,0.7,1.1,0.7,1.8c0,1.2-0.8,2.1-1.8,2.4
		v0c0.7,0.3,1.2,0.9,1.4,1.9c0.3,1.3,0.5,2.2,0.7,2.6h-1.3c-0.2-0.3-0.4-1.1-0.6-2.3c-0.3-1.3-0.8-1.8-1.9-1.8h-1.1v4.1h-1.2V30.4z
		 M53.6,34.7h1.2c1.3,0,2.1-0.7,2.1-1.8c0-1.2-0.9-1.8-2.2-1.8c-0.6,0-1,0.1-1.2,0.1V34.7z"/>
</g>
<g id="XMLID_5_">
</g>
<g id="XMLID_22_">
</g>
<g id="XMLID_23_">
</g>
<g id="XMLID_24_">
</g>
<g id="XMLID_25_">
</g>
<g id="XMLID_26_">
</g>
</svg>
